<?xml version="1.0" standalone="no"?>
<!DOCTYPE svg PUBLIC "-//W3C//DTD SVG 20010904//EN"
 "http://www.w3.org/TR/2001/REC-SVG-20010904/DTD/svg10.dtd">
<svg version="1.0" xmlns="http://www.w3.org/2000/svg"
 width="626.000000pt" height="626.000000pt" viewBox="0 0 626.000000 626.000000"
 preserveAspectRatio="xMidYMid meet">

<g transform="translate(0.000000,626.000000) scale(0.100000,-0.100000)"
fill="#000000" stroke="none">
<path d="M673 4665 c-81 -22 -140 -54 -174 -92 -35 -41 -35 -76 2 -126 11 -15
29 -62 39 -104 11 -42 31 -96 45 -120 13 -24 52 -105 86 -179 99 -219 137
-281 238 -389 37 -38 92 -102 123 -141 32 -40 70 -82 85 -94 32 -25 49 -24
232 4 58 10 116 16 130 14 22 -3 16 -8 -39 -35 -167 -82 -243 -211 -191 -327
11 -26 34 -65 51 -87 66 -82 272 -214 395 -252 28 -8 85 -18 127 -22 96 -7
124 -17 217 -74 71 -43 78 -46 140 -44 36 1 89 -5 120 -13 69 -21 143 -15 205
16 49 25 159 133 192 189 10 17 21 31 25 31 10 0 18 -67 30 -250 10 -167 12
-214 8 -305 -2 -53 33 -188 69 -265 12 -25 22 -54 22 -65 0 -37 66 -159 121
-225 126 -153 168 -164 261 -68 74 76 141 178 162 244 10 32 27 82 38 109 25
62 31 81 59 177 20 70 21 82 9 131 -9 41 -10 66 -1 106 6 29 11 102 11 164 0
62 6 137 13 167 8 31 12 61 9 68 -9 28 16 7 53 -45 49 -68 130 -144 182 -168
55 -27 130 -30 199 -10 40 11 74 15 109 10 42 -5 58 -2 100 21 170 91 172 92
252 98 131 11 229 48 377 143 133 86 226 206 226 293 0 90 -88 196 -208 253
-56 27 -63 32 -41 35 14 2 72 -4 130 -13 176 -28 196 -29 223 -11 14 8 56 53
94 98 39 46 96 110 127 143 72 76 125 156 179 270 142 296 186 396 195 442 6
28 22 68 36 89 36 54 33 80 -19 129 -62 60 -141 86 -284 92 -169 8 -301 -18
-514 -102 -136 -54 -403 -194 -648 -340 -118 -70 -253 -148 -300 -173 -146
-78 -275 -171 -457 -327 -40 -34 -43 -35 -43 -15 0 13 -15 36 -34 54 -63 57
-87 103 -89 168 -3 92 34 120 185 137 46 5 95 14 110 20 40 15 104 76 118 114
27 67 84 99 118 65 7 -7 12 -8 12 -2 0 20 -37 44 -68 44 -24 0 -37 -8 -58 -37
-43 -59 -87 -103 -116 -119 -15 -8 -71 -20 -125 -28 -107 -15 -173 -42 -199
-81 -9 -14 -20 -25 -24 -25 -5 0 -25 27 -45 61 -44 71 -89 100 -130 81 -18 -9
-31 -9 -50 0 -42 19 -81 -6 -131 -84 -24 -37 -48 -68 -52 -68 -5 0 -15 12 -22
26 -25 46 -91 75 -200 89 -122 16 -164 36 -204 94 -48 70 -72 91 -105 91 -29
0 -71 -38 -71 -64 0 -6 7 0 16 12 19 27 64 29 86 5 9 -10 25 -37 36 -59 42
-83 130 -134 230 -134 60 0 132 -26 166 -59 28 -27 31 -36 30 -83 -2 -58 -44
-140 -81 -157 -12 -5 -27 -25 -34 -45 l-12 -34 -96 81 c-139 118 -248 194
-401 279 -74 41 -227 130 -340 197 -351 209 -612 332 -818 387 -122 33 -345
43 -429 19z m240 -44 c26 -25 17 -48 -27 -69 -72 -35 -126 -21 -126 34 l0 25
-26 -20 c-33 -26 -76 -27 -98 -2 -17 18 -16 19 20 31 104 35 223 35 257 1z
m4675 3 c58 -16 64 -33 18 -49 -22 -7 -36 -5 -66 11 -34 19 -37 19 -33 3 6
-22 -30 -59 -57 -59 -29 0 -93 28 -107 47 -15 20 -1 50 30 63 28 12 147 3 215
-16z m-4412 -40 c60 -20 113 -40 118 -45 6 -5 -4 -14 -24 -23 -31 -12 -32 -14
-12 -20 25 -8 64 -54 56 -67 -3 -5 -29 -9 -57 -10 -45 -1 -48 -2 -23 -9 61
-19 85 -70 48 -103 -9 -8 -48 -21 -85 -28 l-69 -13 34 -17 c44 -23 70 -52 62
-72 -6 -18 -90 -47 -132 -47 -36 0 -20 -12 41 -30 l52 -16 -50 -13 c-46 -12
-48 -14 -27 -24 12 -5 22 -13 22 -17 0 -3 -21 -17 -47 -30 l-48 -25 59 -5 c65
-6 77 -17 46 -45 l-21 -19 31 -12 c33 -14 41 -47 14 -62 -11 -6 7 -9 51 -8 56
1 69 -2 81 -19 8 -11 12 -30 9 -42 -5 -21 -2 -23 39 -23 27 0 51 -6 60 -16 21
-20 20 -23 -6 -51 l-21 -23 110 7 c70 4 112 2 116 -4 4 -6 -13 -13 -43 -16
-27 -3 -62 -12 -77 -20 l-27 -15 41 2 c50 1 83 -25 83 -64 0 -43 -26 -57 -125
-64 -49 -4 -124 -14 -165 -22 -41 -8 -78 -14 -82 -14 -13 0 -9 49 7 87 19 45
19 43 -6 43 -19 0 -21 4 -16 40 4 34 2 40 -11 38 -27 -5 -24 26 7 72 l30 45
-32 3 c-70 5 -96 14 -121 39 -14 14 -26 34 -26 44 0 10 -10 24 -22 30 -33 17
-78 60 -94 91 -16 31 -19 101 -4 127 8 17 6 17 -30 7 -42 -11 -90 -1 -97 20
-2 7 19 40 47 74 56 71 64 109 28 134 -17 12 -19 18 -9 29 22 27 132 69 199
76 71 7 69 9 -40 31 -47 9 -58 15 -58 31 0 39 101 62 178 40 17 -5 32 -8 32
-6 0 2 -30 22 -67 44 -38 23 -61 41 -52 41 9 0 65 -16 125 -36z m4044 32 c0
-2 -24 -18 -54 -35 -61 -34 -84 -57 -41 -41 44 17 117 12 153 -10 55 -34 39
-47 -83 -72 l-60 -12 65 -7 c76 -9 136 -29 185 -62 l36 -24 -26 -17 c-42 -28
-32 -66 37 -145 21 -24 38 -50 38 -57 0 -22 -40 -37 -86 -30 l-42 5 10 -36
c16 -57 -3 -104 -66 -160 -29 -26 -61 -62 -70 -80 -21 -41 -47 -55 -119 -62
l-59 -6 31 -39 c33 -41 38 -83 11 -79 -12 2 -15 -6 -12 -37 4 -35 1 -40 -16
-40 -20 0 -20 -2 -6 -35 15 -36 19 -95 7 -95 -5 0 -42 6 -83 14 -41 8 -115 17
-164 21 -91 8 -126 24 -126 61 0 47 67 86 112 64 22 -11 22 -10 3 5 -21 17
-78 35 -112 35 -13 0 -23 5 -23 11 0 9 31 10 111 6 106 -5 110 -5 95 12 -36
40 -12 71 56 71 46 0 48 1 38 20 -9 17 -6 25 15 46 25 24 31 26 83 20 l56 -7
-20 22 c-19 21 -19 21 5 40 13 10 30 19 38 19 11 0 8 6 -8 18 -36 30 -19 50
43 54 l53 3 -47 24 c-54 28 -58 36 -25 45 l22 7 -22 10 c-13 5 -33 13 -45 17
-21 8 -19 10 17 21 22 7 47 15 55 18 8 3 -14 11 -48 19 -35 7 -70 18 -78 25
-31 25 -12 60 50 92 l30 15 -45 6 c-71 12 -108 26 -120 47 -16 31 -1 59 44 80
l42 19 -52 0 c-28 0 -54 3 -57 8 -6 10 12 32 48 60 16 12 23 22 14 22 -8 0
-22 6 -33 14 -16 12 -12 15 51 39 112 42 194 64 194 53z m-4615 -142 c65 -31
75 -51 41 -80 l-25 -22 31 -6 c16 -3 40 -3 52 0 14 3 34 -4 58 -23 21 -15 37
-31 38 -34 0 -3 -18 -14 -41 -24 -53 -25 -66 -48 -39 -75 11 -11 27 -20 36
-20 13 0 14 -3 5 -14 -19 -22 -16 -74 4 -96 10 -11 36 -23 57 -26 20 -4 35
-11 32 -16 -3 -5 -3 -44 1 -87 6 -68 9 -78 24 -74 10 3 35 -10 60 -31 24 -20
46 -36 50 -36 4 0 6 -13 3 -28 -6 -41 20 -62 75 -62 39 0 44 -2 38 -17 -22
-51 -11 -103 20 -103 12 0 13 -5 3 -26 -11 -23 -10 -29 10 -45 17 -13 21 -24
16 -43 -3 -14 -11 -26 -18 -26 -6 0 -33 28 -61 63 -27 34 -82 96 -122 138 -88
93 -150 188 -215 328 -27 58 -74 158 -104 221 -29 63 -59 142 -65 175 -7 34
-22 72 -36 88 -26 33 -28 40 -11 70 11 21 12 21 20 -11 7 -26 19 -37 63 -58z
m5143 45 c2 -16 -6 -33 -23 -49 -14 -13 -25 -33 -25 -46 0 -32 -39 -154 -60
-189 -10 -16 -50 -99 -89 -183 -93 -206 -137 -276 -235 -381 -45 -49 -104
-116 -131 -150 -26 -33 -52 -61 -57 -61 -5 0 -13 10 -17 23 -7 17 -4 26 11 38
16 12 20 23 15 46 -4 22 -1 32 14 41 21 13 26 61 9 93 -10 17 -7 19 35 19 52
0 90 29 82 62 -4 14 3 28 21 44 35 32 82 57 90 49 10 -10 31 117 25 153 -4 26
-2 31 10 26 9 -3 32 2 51 11 43 21 56 57 34 95 -15 26 -14 27 13 37 43 17 48
42 13 70 -16 13 -39 26 -51 29 -31 8 -29 15 18 47 27 20 47 27 62 23 13 -3 36
-2 51 2 l29 8 -27 17 c-22 15 -25 21 -16 38 6 11 28 27 48 37 51 22 72 42 72
64 0 28 24 16 28 -13z m-4114 -140 c71 -39 222 -126 336 -194 114 -68 230
-135 259 -149 50 -26 51 -27 36 -49 -10 -14 -13 -33 -9 -52 4 -22 1 -35 -10
-44 -19 -16 -21 -42 -3 -60 10 -10 7 -16 -13 -31 -14 -11 -20 -20 -14 -20 6 0
17 -13 24 -30 10 -25 10 -34 -4 -55 -10 -15 -27 -30 -38 -34 -14 -5 -18 -10
-10 -15 18 -11 14 -61 -5 -77 -29 -24 -45 -78 -38 -128 l6 -46 -158 7 c-186 8
-348 40 -364 70 -12 22 6 52 26 44 7 -2 23 2 35 11 17 12 21 22 16 45 -7 37
16 83 52 102 l27 14 -25 6 c-94 19 -168 28 -211 24 -44 -5 -49 -3 -44 13 12
36 -12 59 -60 59 -38 0 -45 3 -45 20 0 22 -46 50 -84 50 -55 0 -115 50 -95 81
17 27 9 50 -22 63 l-31 13 32 12 c18 6 45 11 59 12 24 1 24 2 -9 16 l-35 15
40 20 c39 21 39 21 15 30 l-25 9 37 18 c49 25 98 60 98 72 0 5 -8 12 -17 15
-10 3 -27 9 -38 14 l-20 8 20 8 c50 19 75 45 75 78 0 18 -3 36 -7 40 -7 7 -12
96 -6 108 5 11 99 -32 247 -113z m3242 78 c-3 -16 -2 -35 4 -42 7 -9 6 -16 -5
-25 -35 -29 -10 -87 53 -119 25 -13 21 -31 -8 -31 -52 0 -20 -53 51 -86 36
-16 39 -19 24 -30 -15 -11 -14 -14 14 -29 17 -8 31 -18 31 -20 0 -3 -15 -11
-32 -19 l-33 -14 32 -1 c17 -1 44 -6 60 -12 26 -10 27 -12 8 -19 -36 -14 -51
-39 -37 -61 24 -38 -12 -75 -88 -89 -55 -10 -90 -33 -90 -57 0 -8 -12 -13 -34
-13 -54 0 -66 -8 -66 -45 l0 -33 -46 6 c-39 4 -120 -5 -214 -25 -24 -5 -24 -5
-4 -13 37 -15 64 -59 64 -107 0 -45 1 -46 53 -57 30 -7 37 -35 13 -55 -30 -25
-192 -51 -351 -58 l-160 -6 0 66 c0 58 -3 69 -27 94 -30 31 -34 53 -18 84 8
14 7 19 -1 19 -42 0 -67 83 -33 111 14 11 13 14 -7 30 -21 16 -22 18 -6 34 16
16 16 19 -2 48 -12 21 -17 42 -14 60 4 18 0 34 -12 47 -16 18 -15 20 33 44 28
14 113 62 189 107 76 45 188 111 248 147 154 91 396 213 407 206 6 -4 7 -20 4
-37z m-1764 -342 c14 -32 22 -31 36 1 18 37 50 28 88 -26 18 -25 49 -63 68
-86 25 -29 36 -51 36 -74 0 -27 -3 -31 -17 -25 -40 17 -65 16 -122 -4 -75 -26
-77 -26 -152 0 -41 14 -71 19 -95 15 -32 -7 -34 -5 -34 22 0 18 10 37 26 53
15 13 38 42 51 64 55 87 93 107 115 60z m-602 -257 c38 -29 69 -56 70 -59 0
-3 -15 -6 -32 -6 -18 -1 -59 -5 -90 -8 l-58 -7 40 -29 c38 -27 55 -57 28 -46
-7 2 -24 7 -38 11 -17 4 -15 1 8 -9 51 -24 37 -44 -31 -46 l-32 -1 35 -12 c46
-17 44 -38 -4 -51 -30 -9 -36 -13 -22 -18 10 -4 29 -7 42 -7 35 0 30 -18 -8
-30 -28 -8 -25 -9 22 -4 30 3 69 7 85 8 17 1 39 7 49 13 17 9 14 12 -22 18
-48 8 -55 22 -14 27 18 3 22 6 12 10 -8 3 -24 10 -35 14 -16 6 -12 9 20 13
l39 6 -28 18 c-35 23 -30 30 14 17 l33 -9 -24 25 c-23 25 -20 24 48 -10 40
-20 75 -36 79 -36 4 0 -17 19 -45 41 -54 43 -63 63 -14 33 l28 -18 -19 22
c-41 48 3 18 63 -42 l63 -63 -7 -49 c-5 -32 -16 -59 -33 -76 -32 -35 -44 -36
-32 -3 6 16 6 25 0 25 -6 0 -9 6 -8 13 3 13 -54 22 -80 12 -13 -5 -12 -8 6
-21 28 -20 29 -54 2 -54 -12 0 -38 9 -60 20 -23 11 -57 20 -82 19 l-43 -1 35
-15 35 -16 -40 -12 -40 -12 48 -21 c26 -11 47 -23 47 -26 0 -3 -19 -5 -42 -4
-24 1 -81 -2 -128 -7 l-86 -8 -12 27 c-22 49 -15 91 23 136 38 46 39 48 26 69
-6 10 -5 22 5 35 19 28 18 49 -6 79 -26 32 -25 52 1 71 16 11 20 21 15 40 -5
21 -3 26 12 26 11 0 31 -9 45 -20 23 -18 27 -19 41 -4 9 8 16 26 16 40 0 13 3
24 6 24 3 0 37 -24 74 -52z m520 32 c64 -25 126 -25 189 0 36 14 57 17 74 11
27 -10 80 -68 102 -110 15 -29 14 -30 -22 -52 -56 -35 -144 -38 -204 -7 l-46
24 -43 -23 c-60 -32 -130 -31 -187 3 l-43 25 17 31 c19 33 95 118 106 118 3 0
29 -9 57 -20z m820 -45 c10 -12 17 -11 43 6 44 26 59 25 51 -5 -4 -18 0 -28
15 -38 25 -15 27 -45 5 -76 -11 -16 -14 -33 -9 -55 3 -18 6 -47 6 -66 -1 -25
8 -43 35 -73 32 -36 35 -44 29 -76 -14 -74 -17 -76 -109 -67 -44 5 -103 8
-130 7 -45 -1 -47 0 -28 13 11 8 33 20 49 26 l28 12 -32 9 c-18 5 -33 11 -33
14 0 3 15 11 33 19 l32 14 -45 0 c-25 0 -65 -8 -89 -19 -59 -27 -83 -26 -79 2
2 12 14 28 27 35 l25 12 -26 6 c-36 9 -74 2 -70 -13 1 -6 -5 -12 -13 -12 -13
0 -14 -4 -5 -21 7 -11 9 -23 6 -27 -8 -8 -55 38 -72 70 -26 50 -18 69 61 148
41 41 75 70 75 66 0 -5 -7 -18 -17 -28 -9 -10 -11 -18 -5 -18 6 0 14 4 17 10
3 5 16 15 28 20 12 6 -3 -12 -33 -40 l-55 -51 72 35 c83 41 99 45 63 14 l-25
-21 33 6 c39 8 42 -5 5 -24 l-28 -14 45 -3 45 -4 -40 -18 c-37 -17 -38 -19
-13 -19 43 -1 42 -19 -3 -26 -42 -7 -42 -17 0 -30 14 -4 21 -3 17 3 -3 5 11 4
32 -4 20 -7 53 -13 72 -13 l35 1 -32 9 c-39 11 -44 29 -9 29 13 0 32 3 42 7
14 5 8 9 -22 18 -48 13 -50 34 -4 51 l35 12 -31 1 c-16 1 -39 7 -50 15 -18 14
-18 15 6 24 47 17 55 22 28 17 -14 -3 -33 -8 -42 -11 -32 -12 -15 16 26 43
l42 28 -60 9 c-32 5 -74 9 -91 9 -40 1 -34 9 51 73 l60 46 8 -27 c3 -14 12
-32 18 -40z m-1000 -105 c11 -7 11 -10 2 -10 -7 0 -11 -4 -8 -9 3 -5 -1 -12
-10 -15 -8 -3 -12 -11 -9 -16 4 -6 1 -17 -5 -25 -10 -12 -10 -15 1 -15 10 0
10 -3 1 -12 -17 -17 -15 -28 5 -28 14 0 15 -2 1 -17 -24 -29 -33 -47 -18 -38
10 6 11 4 6 -11 -19 -46 -23 -154 -6 -183 8 -14 9 -13 10 6 0 12 7 44 17 70 9
26 15 60 14 76 -1 15 5 40 13 55 9 18 11 33 5 43 -23 36 9 89 55 89 35 0 38
-11 22 -77 -8 -32 -20 -89 -26 -127 -13 -83 -37 -133 -93 -193 -36 -39 -42
-42 -48 -26 -4 10 -8 32 -8 48 -1 24 -3 27 -12 15 -8 -11 -9 -8 -5 15 15 78
26 169 34 262 10 118 25 147 62 123z m607 -21 c8 -15 13 -68 13 -139 0 -69 6
-137 15 -170 17 -64 20 -93 6 -71 -6 9 -11 -2 -16 -34 l-7 -47 -39 38 c-57 56
-96 142 -109 244 -7 46 -18 99 -25 117 -13 32 -13 33 11 39 54 14 105 -44 73
-82 -10 -13 -9 -21 5 -45 11 -18 16 -41 13 -57 -3 -15 1 -38 8 -52 7 -14 16
-45 20 -70 7 -42 8 -43 17 -20 10 28 6 145 -7 174 -6 15 -5 17 5 11 15 -9 6 9
-18 38 -14 15 -13 17 1 17 20 0 22 11 5 28 -9 9 -9 12 2 12 9 0 8 5 -5 20 -14
15 -15 20 -4 20 11 1 10 4 -3 13 -12 10 -14 17 -6 30 12 23 29 17 45 -14z
m-244 -20 c59 -14 78 -46 84 -139 5 -60 3 -68 -26 -107 -17 -24 -35 -43 -41
-43 -5 0 -12 -16 -16 -35 -3 -20 -9 -34 -12 -31 -3 3 -11 1 -19 -5 -10 -9 -13
-8 -13 4 0 10 -6 14 -15 11 -10 -4 -15 0 -16 12 0 13 -2 14 -6 5 -5 -11 -7
-11 -14 0 -7 11 -9 10 -9 -3 0 -21 -16 -24 -23 -5 -3 6 -6 3 -6 -8 -1 -34 -38
-26 -45 8 -3 16 -20 45 -37 65 -49 55 -61 93 -49 149 23 101 28 109 85 122 29
7 61 18 71 25 15 11 22 12 39 1 11 -8 42 -19 68 -26z m-258 -246 c16 -21 8
-43 -14 -43 -14 0 -17 7 -13 30 5 34 10 37 27 13z m367 -13 c5 -36 -3 -44 -27
-26 -15 11 -16 15 -4 34 19 30 26 28 31 -8z m-1594 -39 c102 -26 133 -29 362
-41 142 -7 223 -7 297 2 101 11 103 11 172 -16 67 -27 109 -31 152 -12 13 6
15 1 12 -21 -5 -32 18 -105 34 -110 6 -2 28 10 48 28 27 24 39 29 48 20 8 -8
8 -14 -1 -23 -7 -7 -12 -26 -12 -44 0 -17 -8 -42 -19 -55 -32 -41 -58 -102
-65 -151 -13 -88 -188 -307 -278 -348 -51 -23 -111 -25 -192 -5 -32 7 -79 12
-105 9 -42 -5 -54 -1 -129 44 -92 55 -127 66 -254 80 -73 8 -104 17 -185 56
-160 78 -294 188 -329 271 -49 117 45 239 240 311 76 28 107 29 204 5z m2993
0 c172 -59 269 -152 269 -258 0 -101 -165 -253 -380 -348 -46 -20 -96 -32
-171 -41 -113 -13 -168 -32 -246 -86 -44 -30 -55 -33 -128 -35 -44 -1 -96 -7
-115 -12 -124 -38 -216 9 -338 172 -95 126 -117 163 -135 228 -9 30 -28 72
-42 93 -14 21 -25 51 -25 69 0 18 -5 38 -12 45 -9 9 -9 15 -1 23 9 9 21 4 48
-20 20 -18 42 -30 48 -28 18 6 38 88 31 126 l-7 34 31 -21 c40 -29 84 -28 160
5 63 27 65 27 170 15 175 -19 528 3 667 42 70 20 113 19 176 -3z m-1796 -68
c-6 -27 -6 -27 14 -9 21 19 21 19 22 -15 l1 -34 13 30 14 30 11 -33 c14 -39
71 -72 125 -72 53 0 111 33 125 72 l12 33 10 -25 11 -25 6 30 6 30 19 -25 18
-25 -7 34 c-7 32 -6 33 14 19 11 -8 30 -27 42 -42 20 -26 21 -29 6 -38 -10 -5
-17 -16 -17 -23 0 -8 -9 -15 -20 -15 -11 0 -47 -14 -80 -32 -51 -27 -64 -29
-85 -20 -21 10 -25 9 -25 -6 -1 -15 -3 -14 -19 4 -17 21 -18 21 -29 3 -14 -22
-37 -26 -29 -4 5 12 2 12 -18 3 -21 -9 -34 -6 -85 20 -33 18 -69 32 -80 32
-11 0 -20 7 -20 15 0 9 -7 18 -15 21 -21 9 -19 16 19 57 40 44 51 46 41 10z
m205 -38 c0 -5 5 -3 11 5 8 11 12 12 16 2 2 -6 8 -10 13 -7 12 7 20 -20 10
-35 -10 -16 -96 -18 -111 -3 -11 11 -1 45 12 37 5 -3 9 -1 9 5 0 5 9 9 20 8
11 -1 20 -6 20 -12z m-236 -178 c-5 -9 -4 -9 7 1 18 17 32 15 25 -4 -4 -12 -2
-15 9 -10 8 3 22 9 30 12 11 4 15 0 15 -15 0 -12 5 -21 10 -21 6 0 10 5 10 10
0 6 5 10 10 10 6 0 10 -7 10 -16 0 -15 2 -15 25 0 31 20 35 20 35 -1 0 -16 2
-16 18 3 21 25 37 25 56 -1 14 -18 15 -18 16 -2 0 21 4 21 35 1 23 -15 25 -15
25 0 0 21 9 20 26 -1 12 -16 13 -15 14 10 0 30 3 32 31 17 15 -9 19 -7 19 5 0
13 4 14 21 4 16 -8 20 -8 14 0 -4 7 -4 19 -1 28 16 40 90 -73 101 -152 3 -27
13 -70 21 -94 18 -54 6 -74 -27 -45 -22 19 -23 18 -4 -27 11 -28 -46 -33 -67
-6 l-18 22 0 -22 c0 -28 -8 -29 -26 -5 -12 16 -13 15 -14 -5 0 -32 -21 -39
-41 -14 -16 19 -19 20 -27 5 -8 -15 -11 -14 -26 7 l-16 23 0 -22 c0 -25 -18
-30 -27 -7 -3 9 3 25 13 36 16 18 16 19 1 13 -20 -7 -23 6 -5 24 15 15 3 16
-24 1 -18 -10 -19 -8 -13 13 7 21 6 22 -9 9 -15 -13 -19 -13 -27 0 -8 12 -10
12 -18 0 -8 -13 -12 -13 -27 0 -15 12 -16 12 -10 -9 6 -18 4 -21 -11 -16 -17
5 -17 5 0 -9 18 -15 24 -32 7 -22 -13 8 -13 -1 0 -25 12 -22 -5 -39 -23 -21
-7 7 -14 7 -24 0 -10 -9 -15 -6 -21 11 -8 22 -8 22 -20 -4 -14 -32 -26 -33
-46 -4 -9 12 -16 17 -16 10 0 -6 -4 -12 -10 -12 -5 0 -10 10 -10 23 l-1 22
-18 -22 c-11 -13 -22 -23 -26 -23 -3 0 -3 10 0 23 l7 22 -17 -23 c-21 -29 -39
-18 -31 20 5 26 4 29 -9 18 -21 -18 -27 -8 -15 24 5 15 10 55 10 89 0 66 17
105 68 160 22 23 27 25 35 12 4 -8 5 -21 1 -28z m576 -433 c0 -62 -1 -65 -22
-63 -13 2 -29 0 -37 -5 -8 -5 -16 -4 -21 4 -5 8 -9 6 -14 -7 -7 -16 -9 -16
-25 6 l-18 24 -7 -27 c-8 -32 -20 -33 -33 -3 l-11 22 -10 -27 c-14 -34 -27
-41 -42 -23 -10 12 -16 13 -27 4 -11 -9 -17 -8 -27 7 -17 23 -12 34 15 34 18
0 19 2 5 15 -8 8 -20 15 -26 15 -6 0 -8 5 -5 10 3 6 2 10 -3 10 -5 0 -7 11 -4
25 5 30 10 31 28 8 8 -11 13 -13 14 -5 0 17 20 15 20 -3 0 -8 5 -15 10 -15 6
0 10 7 10 15 0 22 18 18 25 -4 6 -20 6 -20 26 0 19 19 22 20 39 4 17 -15 19
-15 25 4 8 27 22 27 31 -1 6 -20 7 -21 17 -2 15 28 15 28 32 14 13 -10 15 -9
15 9 0 11 5 21 10 21 6 0 10 -29 10 -66z m-670 28 c1 -16 1 -16 11 1 14 23 26
22 35 -5 l6 -21 14 24 13 24 8 -23 c8 -21 10 -22 22 -8 18 21 26 20 50 -5 l19
-21 7 21 c7 23 21 27 28 9 4 -10 8 -10 15 1 8 10 11 11 17 1 6 -10 11 -9 20 4
12 15 13 15 19 0 9 -24 -2 -54 -20 -54 -8 0 -13 -4 -9 -9 3 -5 -3 -12 -12 -14
-11 -3 -8 -5 10 -6 29 -1 36 -21 13 -40 -10 -9 -16 -9 -21 -1 -5 8 -13 6 -25
-5 -18 -16 -20 -15 -38 15 -19 30 -20 31 -27 11 -9 -29 -23 -26 -31 5 l-7 27
-18 -24 c-16 -22 -18 -22 -25 -6 -5 13 -9 15 -14 7 -5 -8 -13 -9 -21 -4 -8 5
-22 7 -31 6 -14 -3 -18 4 -18 26 0 16 -3 44 -7 62 -4 24 -3 31 5 26 7 -4 12
-15 12 -24z m680 -190 c0 -51 -39 -179 -40 -131 -1 8 -6 4 -14 -10 -13 -23
-14 -23 -24 -5 -6 10 -12 13 -12 7 0 -19 -18 -15 -23 5 -3 14 -6 12 -15 -10
-17 -41 -32 -44 -32 -7 0 31 -1 32 -15 13 -14 -18 -14 -18 -15 6 -1 21 -4 18
-16 -15 -18 -48 -34 -67 -34 -39 -1 18 -2 18 -13 -3 -10 -18 -15 -20 -29 -9
-23 17 -23 26 -1 26 15 0 14 2 -3 15 -13 10 -14 14 -5 15 11 0 11 3 1 15 -10
12 -10 15 1 15 10 0 10 3 1 12 -14 14 -16 48 -3 48 6 0 13 -5 17 -12 5 -8 10
-6 15 8 6 18 8 17 17 -6 10 -24 11 -24 11 -2 1 27 21 29 28 2 7 -27 20 -25 27
5 8 31 20 32 34 3 l11 -23 0 23 c1 26 16 29 30 5 10 -16 11 -16 17 6 7 23 8
23 21 6 12 -18 13 -18 13 3 0 24 15 30 23 10 3 -7 6 -3 6 10 1 20 21 34 21 14z
m-660 -34 c7 -18 9 -19 9 -5 1 24 18 21 25 -5 5 -22 6 -22 20 -3 14 20 15 20
24 -5 l9 -25 7 23 c10 29 24 28 32 -3 7 -27 24 -34 24 -11 0 25 21 29 27 6 6
-22 6 -21 19 6 12 28 12 28 13 5 1 -19 4 -21 15 -12 11 10 15 8 18 -6 2 -10
-5 -23 -17 -30 -20 -12 -19 -12 4 -13 20 0 21 -2 11 -15 -10 -12 -10 -15 1
-15 9 -1 8 -5 -5 -15 -19 -14 -19 -15 -1 -15 18 0 18 -1 -1 -19 -19 -18 -19
-18 -31 3 -12 20 -12 20 -13 2 0 -28 -18 -8 -35 40 -12 32 -14 35 -15 14 -1
-24 -1 -24 -15 -7 -13 18 -14 16 -17 -15 l-3 -33 -23 35 c-14 23 -22 29 -22
18 0 -25 -15 -22 -28 5 -10 21 -11 21 -12 -8 -1 -29 -2 -28 -26 18 -18 35 -23
57 -19 78 8 35 13 36 25 7z m0 -234 c0 -13 3 -14 14 -5 11 9 15 6 21 -16 5
-21 8 -24 16 -12 8 12 10 12 20 -1 8 -11 12 -12 16 -2 7 19 20 14 26 -10 l6
-21 21 24 c15 17 23 20 27 11 4 -10 8 -9 19 5 13 17 13 17 14 -2 0 -18 2 -18
21 5 l21 25 -5 -27 c-2 -16 0 -25 6 -21 5 3 6 -3 2 -17 -5 -16 -4 -20 4 -15 8
5 10 -2 5 -22 -9 -37 -13 -41 -24 -23 -8 13 -10 12 -10 -2 0 -30 -20 -20 -27
13 l-6 32 -17 -23 c-13 -17 -19 -19 -25 -10 -6 9 -9 9 -16 -1 -7 -11 -13 -9
-28 10 -14 18 -20 21 -24 10 -5 -12 -7 -12 -15 0 -8 11 -11 11 -18 0 -17 -27
-39 -14 -56 34 -17 46 -15 77 3 77 5 0 9 -7 9 -16z m634 -11 c3 -16 -3 -59
-13 -98 -17 -63 -19 -66 -20 -31 -1 29 -5 37 -15 33 -8 -3 -17 2 -21 11 -5 14
-7 14 -16 2 -9 -13 -11 -13 -16 -1 -4 11 -10 8 -24 -10 -15 -19 -21 -21 -28
-10 -7 10 -10 10 -16 1 -6 -9 -12 -7 -25 10 l-17 23 -6 -32 c-7 -32 -27 -43
-27 -14 0 15 -2 14 -15 -3 -11 -14 -14 -15 -15 -4 0 8 -3 26 -7 39 -5 19 -3
22 8 16 11 -6 12 -5 2 6 -17 17 -16 30 1 23 10 -4 12 2 9 23 l-5 28 21 -25
c19 -23 21 -23 21 -5 1 19 1 19 11 1 9 -15 13 -16 20 -5 8 11 13 10 28 -9 19
-22 20 -22 26 -2 7 23 21 26 28 8 4 -10 8 -9 16 2 10 13 12 13 20 1 8 -12 11
-9 16 12 6 22 10 25 21 16 11 -9 14 -8 14 5 0 27 18 18 24 -11z m-59 -225 c-3
-13 -9 -33 -12 -45 -6 -27 -20 -30 -26 -5 -3 12 -5 10 -6 -7 -1 -16 -5 -21
-16 -17 -8 3 -15 1 -15 -4 0 -19 -19 -10 -22 10 -3 19 -4 19 -32 -6 -21 -20
-30 -23 -36 -14 -5 9 -9 9 -14 1 -11 -17 -23 -13 -31 12 l-8 22 -4 -22 c-5
-25 -18 -30 -29 -11 -4 6 -2 14 4 16 7 2 12 12 12 23 0 11 5 16 14 13 10 -4
12 2 9 23 -4 27 -4 27 12 8 14 -17 17 -18 25 -5 8 12 11 11 16 -7 7 -26 22
-30 30 -8 6 15 29 16 51 2 7 -4 18 1 26 14 11 15 16 17 20 7 3 -9 7 -8 12 5
11 25 29 21 20 -5z m-484 -10 c10 -13 18 -18 19 -12 0 21 49 13 56 -9 6 -19 8
-19 22 9 9 16 17 24 19 17 6 -18 23 -16 23 2 0 8 5 15 10 15 13 0 13 -16 -2
-43 -10 -20 -10 -21 6 -8 15 13 18 12 23 -7 3 -12 9 -19 14 -16 11 6 11 1 3
-20 -9 -24 -24 -19 -24 7 l0 22 -19 -24 c-12 -16 -20 -20 -25 -12 -6 9 -11 9
-22 0 -10 -8 -14 -8 -14 0 0 6 -5 11 -11 11 -7 0 -18 8 -25 18 -12 16 -13 15
-14 -5 0 -24 -14 -31 -25 -13 -4 6 -10 8 -14 6 -12 -8 -42 51 -35 68 8 21 12
20 35 -6z m78 -158 c31 16 39 12 33 -16 l-5 -25 34 20 c43 26 43 26 59 -6 l13
-28 9 28 c11 31 18 33 60 11 28 -15 30 -15 25 0 -7 18 6 21 34 6 14 -8 19 -7
19 3 0 10 8 13 25 9 36 -6 39 -18 14 -54 -20 -28 -23 -29 -29 -12 -6 16 -9 15
-24 -14 l-17 -33 -20 23 c-15 17 -19 18 -15 6 6 -19 -9 -25 -19 -8 -11 18 -25
10 -25 -15 0 -28 -15 -33 -24 -9 -5 13 -9 14 -20 5 -11 -10 -16 -8 -21 10 l-7
22 -13 -23 -12 -23 -16 23 c-8 12 -20 19 -26 15 -7 -4 -11 3 -11 17 0 30 -15
54 -24 39 -11 -17 -24 -13 -31 10 -5 15 -9 18 -15 9 -6 -10 -9 -10 -15 0 -5 8
-1 18 11 27 16 12 19 11 26 -7 6 -17 11 -19 27 -10z"/>
<path d="M1477 4403 c-12 -11 -8 -43 9 -68 25 -39 15 -67 -35 -91 -40 -19 -42
-22 -23 -28 23 -8 38 -45 28 -71 -7 -19 -48 -35 -89 -35 -29 0 -30 -1 -11 -15
19 -14 19 -15 -3 -21 -26 -7 -30 -19 -8 -28 21 -8 19 -26 -3 -26 -20 0 -62
-27 -62 -40 0 -6 10 -6 26 0 51 20 104 11 203 -32 116 -52 172 -56 203 -18 14
17 18 34 15 55 -6 36 15 55 61 55 46 0 56 -19 27 -50 l-25 -27 69 18 c39 10
79 23 90 29 27 14 42 44 34 67 -10 30 -54 72 -69 66 -31 -12 -65 9 -100 61
-43 65 -65 76 -157 76 -67 0 -70 -1 -49 -16 29 -20 28 -28 -4 -43 l-26 -12 26
-20 c53 -42 24 -89 -56 -89 -30 0 -30 1 -15 18 23 25 21 58 -3 79 -18 16 -18
18 -4 35 16 16 15 42 0 78 -4 11 3 19 24 27 36 13 39 36 8 57 -23 16 -69 21
-81 9z"/>
<path d="M2074 4055 c-3 -13 -3 -29 1 -34 4 -7 -4 -11 -20 -11 -34 0 -81 -33
-100 -71 l-16 -29 56 0 c58 0 70 -10 33 -28 -21 -10 -21 -11 12 -12 19 0 46
-7 60 -15 25 -14 25 -14 -38 -41 l-64 -28 43 -11 c41 -10 66 -35 35 -35 -36 0
-117 -23 -136 -38 -21 -17 -20 -17 10 -18 34 -1 70 -29 70 -53 -1 -9 -23 -33
-51 -54 l-49 -39 -29 25 c-22 18 -27 27 -18 36 16 16 -3 13 -43 -8 l-35 -19
40 -16 c22 -9 57 -36 78 -59 27 -30 40 -38 44 -28 13 32 63 75 104 90 46 17
55 34 45 77 -4 16 -20 31 -44 42 l-37 17 70 5 c70 5 70 5 70 35 0 22 -6 33
-22 40 -26 11 -30 25 -8 25 9 0 20 11 27 25 9 19 8 29 -6 50 -16 24 -16 25 4
25 28 0 25 16 -6 37 -21 14 -33 15 -65 6 -31 -8 -39 -7 -39 3 0 23 39 36 86
29 36 -5 44 -3 44 10 0 8 -7 18 -16 22 -8 3 -13 11 -10 18 6 18 -5 31 -41 43
-31 10 -33 9 -39 -13z"/>
<path d="M4699 4392 c-28 -24 -20 -50 20 -58 28 -6 28 -6 13 -37 -14 -28 -14
-33 0 -58 15 -26 15 -29 -3 -45 -24 -22 -24 -49 1 -74 l20 -20 -38 0 c-41 0
-82 23 -82 46 0 8 11 26 24 39 l24 24 -22 14 c-21 14 -21 15 -2 36 l19 21 -77
0 c-75 0 -79 -1 -109 -33 -18 -18 -45 -50 -60 -70 -28 -37 -77 -52 -77 -24 -1
22 -70 -62 -70 -86 0 -40 23 -57 108 -81 82 -23 102 -21 60 6 -30 20 -18 48
22 48 49 0 73 -17 66 -46 -10 -39 18 -82 58 -90 40 -7 86 6 170 48 68 34 160
47 196 28 18 -10 22 -9 18 2 -2 7 -21 22 -43 32 -36 18 -37 20 -19 33 18 14
18 15 1 24 -14 8 -16 14 -6 25 9 12 6 14 -19 14 -78 0 -117 55 -69 96 l27 23
-36 11 c-50 17 -61 47 -36 96 14 28 17 45 11 57 -13 23 -61 22 -90 -1z"/>
<path d="M4143 4065 c-18 -8 -33 -21 -33 -30 0 -9 -7 -23 -15 -31 -27 -27 -17
-36 30 -28 34 5 51 2 70 -10 36 -23 23 -35 -24 -23 -32 9 -44 8 -65 -6 -31
-21 -34 -37 -6 -37 24 0 25 -4 4 -35 -15 -23 -14 -26 12 -52 16 -16 22 -29 15
-31 -23 -8 -42 -35 -39 -56 3 -18 11 -22 73 -26 62 -5 67 -7 45 -17 -39 -17
-62 -48 -58 -79 2 -23 11 -31 47 -45 48 -17 77 -40 102 -78 l15 -25 50 52 c31
32 59 52 72 52 32 0 27 14 -13 33 -43 20 -51 21 -36 4 8 -10 4 -19 -19 -35
l-29 -22 -50 40 c-28 22 -51 47 -51 55 0 19 43 47 75 49 26 1 26 1 5 18 -18
15 -100 38 -135 38 -8 0 -15 5 -15 10 0 13 43 30 78 30 21 1 12 7 -35 27 -35
14 -63 29 -63 34 0 12 44 29 78 29 l27 1 -23 12 c-31 18 -18 27 40 27 26 0 48
4 48 9 0 29 -90 104 -115 95 -5 -2 -11 8 -12 22 -2 38 -14 44 -50 29z"/>
<path d="M3052 4033 c-15 -20 -23 -25 -29 -16 -6 9 -19 3 -46 -22 -20 -19 -37
-40 -37 -47 1 -8 7 -5 16 7 13 17 16 18 24 5 7 -10 10 -11 10 -2 0 6 7 12 15
12 8 0 15 -5 15 -12 0 -6 9 -3 20 7 20 18 20 17 20 -10 l0 -27 20 23 19 24 2
-25 c2 -29 17 39 18 79 l1 24 -23 -21 c-30 -29 -39 -28 -27 3 12 32 9 31 -18
-2z"/>
<path d="M3192 4037 c6 -33 1 -34 -30 -4 l-24 22 7 -60 c8 -62 15 -85 15 -47
0 29 14 28 27 0 l10 -23 7 23 c7 22 26 31 26 12 0 -5 5 -10 10 -10 6 0 10 7
10 17 0 14 3 14 22 -3 12 -10 18 -13 14 -6 -4 6 -3 12 3 12 5 0 15 -8 20 -17
9 -16 10 -16 11 -1 0 9 -18 31 -40 48 -25 19 -40 27 -40 18 0 -7 -12 0 -27 17
l-26 30 5 -28z"/>
<path d="M2925 3850 c-32 -51 -33 -62 -14 -81 11 -11 24 -17 30 -14 5 4 16 1
24 -5 8 -7 15 -8 15 -3 0 5 19 9 42 10 22 1 46 7 52 14 8 9 7 10 -7 6 -27 -10
-60 11 -54 34 7 25 -5 24 -28 -1 -24 -27 -59 -10 -52 26 5 26 2 30 -8 14z"/>
<path d="M3324 3842 c13 -39 -43 -65 -58 -26 -3 8 -10 14 -15 14 -6 0 -8 -6
-5 -14 9 -22 -25 -48 -55 -41 -20 4 -22 3 -11 -5 8 -5 25 -10 38 -10 12 0 22
-5 22 -11 0 -8 4 -8 14 0 11 9 16 9 22 0 5 -9 10 -7 20 5 8 11 14 13 19 7 9
-16 25 -13 25 3 0 8 5 16 12 18 9 3 9 12 -1 36 -15 37 -37 56 -27 24z"/>
<path d="M3060 3684 c-19 -7 -42 -13 -52 -13 -12 -1 -38 -45 -38 -67 0 -1 13
11 29 27 35 35 57 36 87 8 l23 -22 -6 39 c-3 22 -6 39 -7 40 -1 0 -17 -5 -36
-12z"/>
<path d="M3148 3660 l-3 -38 24 19 c13 11 31 19 40 19 20 0 61 -35 61 -52 0
-6 2 -9 5 -6 11 10 -18 68 -33 68 -10 1 -33 7 -54 14 l-36 13 -4 -37z"/>
<path d="M3022 3608 c-16 -16 -15 -65 1 -71 6 -2 24 2 40 10 32 16 36 48 8 63
-25 13 -34 13 -49 -2z"/>
<path d="M3176 3607 c-10 -7 -17 -22 -14 -32 4 -22 44 -46 64 -38 21 8 17 61
-5 73 -25 13 -24 13 -45 -3z"/>
<path d="M2970 3515 c0 -13 30 -62 45 -75 9 -7 34 -14 56 -14 33 -1 39 2 38
19 -2 39 -14 70 -23 57 -10 -16 -45 -15 -80 3 -31 16 -36 18 -36 10z"/>
<path d="M3240 3504 c-31 -17 -66 -18 -76 -2 -9 14 -22 -15 -23 -52 -1 -23 3
-25 39 -24 45 1 74 22 89 65 11 32 8 34 -29 13z"/>
<path d="M1455 3341 c-40 -24 -68 -57 -61 -70 4 -6 -5 -13 -19 -17 -56 -14
-97 -104 -60 -134 9 -7 12 -22 9 -40 -8 -38 24 -70 70 -70 28 0 33 -3 30 -17
-8 -29 19 -54 64 -60 33 -4 42 -10 42 -25 0 -27 43 -44 75 -30 22 10 25 9 25
-7 0 -34 35 -54 83 -48 40 6 45 4 55 -18 12 -27 42 -34 90 -22 23 6 38 4 48
-4 8 -7 30 -12 49 -11 24 1 35 -3 35 -13 0 -19 37 -38 61 -32 13 4 19 0 19
-12 0 -43 81 -67 132 -40 14 8 23 8 31 0 14 -14 77 -14 97 -1 12 8 11 10 -8
10 -12 0 -25 7 -28 15 -4 8 -14 15 -23 15 -24 0 -41 20 -41 47 0 19 -4 22 -23
18 -33 -9 -50 16 -45 65 2 25 0 36 -6 30 -14 -14 -70 -12 -84 2 -7 7 -12 25
-12 40 0 33 2 32 -43 13 -46 -19 -72 -19 -91 1 -12 12 -14 20 -5 35 10 20 10
20 -15 4 -58 -38 -107 12 -66 68 l23 30 -24 -16 c-34 -24 -86 -22 -99 3 -6 12
-8 30 -5 40 5 17 2 20 -27 20 -19 0 -39 5 -46 12 -18 18 -15 55 6 67 14 9 10
10 -18 11 -62 0 -79 42 -35 85 29 30 27 30 -40 9 -65 -21 -105 -13 -105 19 0
13 5 28 12 35 17 17 8 15 -27 -7z"/>
<path d="M1843 3296 c-67 -18 -126 -35 -130 -40 -4 -4 -2 -15 4 -24 11 -18 65
-22 138 -10 33 5 37 5 21 -5 -11 -7 -33 -24 -50 -39 -29 -25 -30 -28 -14 -44
14 -15 24 -16 70 -6 29 6 62 13 73 17 19 6 19 5 1 -7 -56 -39 -67 -52 -64 -72
3 -18 10 -21 43 -20 22 0 58 8 79 18 l39 18 -26 -32 c-26 -31 -37 -80 -17 -80
5 0 33 9 62 20 29 11 54 20 56 20 1 0 -2 -9 -8 -21 -20 -37 -5 -51 50 -47 28
1 50 1 50 -2 0 -3 -5 -22 -10 -42 -20 -72 37 -146 93 -121 21 10 25 8 34 -18
8 -19 24 -35 50 -46 57 -24 87 -20 128 15 19 18 42 32 49 32 32 0 96 96 111
165 l6 30 -19 -22 c-26 -30 -32 -29 -32 5 -1 24 -3 23 -23 -18 -12 -25 -27
-44 -34 -43 -6 2 -14 -6 -18 -16 -3 -10 -17 -29 -32 -42 l-26 -24 6 22 5 23
-25 -20 c-27 -21 -48 -27 -38 -10 8 13 -1 13 -27 -1 -18 -9 -19 -8 -13 10 5
16 3 20 -9 15 -12 -5 -16 0 -16 20 0 14 -3 25 -7 25 -30 -5 -35 2 -19 26 24
37 20 39 -19 9 -37 -28 -42 -26 -24 8 8 15 8 19 0 14 -15 -10 -14 7 1 22 9 9
9 12 -2 12 -10 0 -9 4 3 18 18 20 22 33 10 31 -29 -5 -36 2 -20 19 19 21 23
42 5 24 -7 -7 -19 -12 -27 -11 -11 0 -12 2 -3 6 20 8 14 22 -8 16 -26 -7 -25
2 2 40 l23 31 -38 -23 c-45 -27 -51 -25 -32 12 16 31 16 31 -19 17 -17 -6 -26
-6 -26 0 0 6 3 10 8 10 4 0 23 14 42 31 33 29 33 30 5 14 -16 -10 -40 -25 -52
-33 -25 -15 -31 -4 -10 17 10 10 8 11 -8 6 -16 -6 -16 -3 5 14 28 23 16 28
-14 6 -23 -17 -40 -20 -31 -5 3 6 0 10 -7 10 -7 0 -2 10 12 21 25 20 25 20
-17 0 -55 -27 -62 -26 -33 4 13 14 19 25 14 25 -5 1 2 10 16 22 l25 21 -35 -8
c-53 -12 -75 -11 -72 3 3 15 -8 15 -43 2 -23 -9 -26 -8 -21 5 3 8 4 15 3 14
-1 0 -57 -15 -124 -33z"/>
<path d="M2431 3290 c-24 -11 -50 -20 -58 -20 -27 0 -2 -19 34 -26 35 -7 35
-7 16 -23 -19 -14 -43 -52 -43 -65 0 -3 7 -3 16 1 14 5 15 3 5 -15 -15 -28
-14 -32 4 -26 11 4 15 0 15 -16 0 -12 3 -20 8 -18 38 20 85 38 88 35 3 -2 -20
-25 -50 -50 -29 -26 -56 -56 -59 -67 -5 -18 -3 -19 10 -8 15 12 15 7 9 -49 -4
-35 -5 -63 -2 -63 3 0 22 15 42 33 35 30 37 30 32 9 -6 -22 -6 -23 17 -8 31
20 36 20 28 -1 -16 -41 20 4 48 60 18 37 52 82 82 110 45 41 48 46 20 32 -42
-20 -50 -19 -31 3 24 28 33 46 18 37 -10 -6 -12 -4 -7 8 22 55 22 53 2 37 -19
-15 -19 -14 -2 12 26 41 21 41 -30 2 -57 -43 -76 -70 -44 -59 25 8 28 -10 4
-20 -17 -7 -17 -8 0 -14 16 -6 14 -11 -15 -49 -39 -51 -58 -55 -29 -7 20 35
20 35 1 25 -26 -14 -26 1 0 58 l19 42 -30 -16 c-17 -8 -33 -13 -36 -10 -9 9 9
28 56 58 l46 30 -42 -4 c-29 -2 -43 0 -43 9 0 8 20 13 58 15 l57 3 -37 18
c-49 23 -123 21 -177 -3z"/>
<path d="M4786 3336 c28 -45 -15 -71 -78 -47 -13 4 -36 11 -53 15 l-30 8 23
-25 c16 -17 22 -34 20 -53 -3 -27 -6 -29 -44 -29 l-41 0 19 -26 c34 -45 -5
-85 -66 -68 -23 7 -27 6 -18 -3 7 -7 12 -21 12 -33 0 -45 -45 -58 -103 -29
l-32 17 23 -25 c53 -58 -2 -117 -67 -72 -22 16 -22 16 -9 -5 11 -19 11 -24 -6
-37 -25 -18 -45 -18 -89 1 -46 19 -51 19 -43 -1 18 -47 -56 -84 -95 -48 -16
15 -17 13 -7 -26 9 -35 8 -44 -8 -61 -13 -14 -25 -18 -42 -14 -14 3 -21 2 -18
-4 11 -17 -13 -61 -33 -61 -10 0 -24 -7 -31 -15 -7 -8 -19 -15 -27 -15 -8 0
-11 -4 -8 -10 8 -13 78 -13 91 0 8 8 19 8 38 0 62 -23 126 -2 126 42 0 10 8
13 29 10 23 -3 33 1 46 21 12 19 25 25 51 25 19 0 40 5 48 11 8 7 23 8 45 1
40 -11 81 3 88 30 4 16 11 18 52 13 52 -6 81 11 81 48 0 16 3 18 19 9 11 -5
29 -10 40 -10 21 0 54 37 45 52 -3 4 10 8 28 8 44 0 78 25 78 56 0 20 5 24 28
24 45 0 75 27 69 63 -2 19 1 37 9 45 17 16 18 66 3 94 -6 11 -29 28 -52 39
-23 10 -36 19 -28 19 19 0 -34 57 -72 76 l-28 15 17 -25z"/>
<path d="M4299 3317 c16 -20 12 -21 -25 -7 -21 8 -29 7 -38 -6 -10 -13 -18
-14 -52 -5 -53 15 -64 13 -31 -5 15 -8 25 -19 22 -25 -4 -5 4 -19 17 -30 l23
-20 -25 7 c-14 3 -38 13 -55 20 -28 14 -29 14 -8 -2 12 -8 19 -22 16 -30 -4
-11 -10 -11 -36 3 l-32 16 20 -23 c19 -23 19 -23 1 -16 -19 7 -19 6 -1 -14 23
-25 12 -26 -23 -1 -32 22 -72 43 -72 38 0 -2 21 -18 46 -36 45 -33 55 -53 14
-31 -28 15 -35 8 -20 -20 17 -32 4 -37 -30 -11 -32 23 -38 18 -15 -13 21 -27
19 -39 -6 -33 -16 4 -18 3 -8 -9 14 -17 5 -18 -22 -3 -20 10 -20 10 -4 -14 17
-26 6 -45 -17 -30 -8 4 -7 -2 2 -17 9 -14 15 -36 14 -50 -1 -14 2 -33 7 -42
13 -25 2 -22 -38 8 l-35 26 16 -30 c16 -30 8 -51 -14 -37 -6 3 -10 -5 -10 -19
0 -18 -4 -24 -14 -20 -11 4 -13 0 -9 -16 5 -20 4 -21 -16 -11 -14 8 -21 8 -21
1 0 -16 -14 -12 -40 12 l-23 22 5 -22 c9 -34 -9 -26 -41 18 -15 21 -31 37 -35
33 -3 -3 -15 15 -26 40 -23 51 -36 62 -26 22 8 -33 -7 -32 -34 2 l-22 28 8
-30 c20 -85 62 -151 109 -171 17 -7 38 -20 45 -29 7 -9 26 -23 41 -30 24 -13
33 -13 70 0 52 19 79 42 79 67 0 15 3 17 19 8 34 -17 58 -11 86 22 23 27 26
39 22 73 -3 22 -8 47 -11 55 -5 12 2 14 44 12 55 -4 74 14 51 49 -14 24 -4 24
50 -1 24 -11 50 -20 57 -20 20 0 14 58 -8 80 -30 30 -24 33 20 10 49 -25 96
-26 108 -2 14 26 4 40 -40 63 -22 11 -38 22 -36 24 2 2 28 -2 58 -10 72 -19
99 -19 107 2 5 12 -7 28 -38 56 -24 22 -35 36 -25 33 11 -4 45 -9 75 -13 45
-4 59 -2 70 11 7 9 11 21 8 28 -2 7 -56 26 -118 42 -63 16 -121 32 -129 35
-13 4 -13 2 -1 -12z"/>
<path d="M3650 3292 l-35 -17 55 -3 c72 -4 91 -22 25 -22 l-50 -1 35 -18 c34
-18 91 -71 76 -71 -3 0 -21 6 -40 14 l-33 14 19 -36 c24 -47 24 -74 1 -65 -17
7 -17 5 0 -21 30 -44 13 -41 -27 6 -30 34 -34 44 -21 46 15 3 15 6 -2 24 -18
20 -18 21 6 13 38 -12 21 14 -39 58 -50 37 -57 35 -22 -5 17 -20 3 -25 -16 -6
-17 17 -15 -4 4 -30 10 -15 11 -22 3 -22 -7 0 -5 -9 5 -26 l17 -25 -30 16
c-45 23 -38 3 14 -40 30 -24 58 -61 82 -108 23 -46 38 -66 41 -55 3 17 5 17
29 1 25 -17 26 -17 18 7 -7 23 -6 23 29 -8 20 -17 40 -32 45 -32 4 0 4 21 0
48 -12 72 -12 77 6 62 12 -10 15 -10 15 1 0 7 -28 40 -62 72 -48 45 -57 57
-38 52 14 -4 35 -13 47 -21 29 -19 33 -18 33 7 0 15 4 19 16 15 13 -5 15 -1
10 19 -5 20 -3 23 10 18 14 -5 15 -3 4 18 -7 13 -22 34 -33 47 -11 12 -15 22
-9 22 6 0 23 5 39 11 27 10 27 10 -32 35 -71 28 -144 31 -195 6z"/>
<path d="M3057 3040 c-35 -18 -49 -22 -55 -13 -5 8 -13 9 -22 3 -24 -16 -40
-11 -49 12 -8 22 -8 22 -20 3 -10 -16 -22 -20 -54 -17 l-42 3 40 -35 c28 -25
35 -35 23 -36 -15 0 -16 -4 -6 -25 16 -34 36 -38 93 -15 28 10 44 19 38 20 -7
0 -13 4 -13 10 0 5 13 7 30 3 26 -5 29 -3 24 12 -7 16 -5 16 25 1 30 -16 31
-16 31 6 l1 23 13 -23 13 -24 17 24 17 23 -7 -24 c-6 -23 -6 -23 17 -7 30 20
43 20 35 0 -5 -14 -1 -16 24 -11 28 6 44 -7 19 -15 -6 -2 13 -12 42 -22 l52
-19 25 28 c22 26 23 29 7 35 -15 5 -11 11 21 38 l39 33 -42 -3 c-33 -2 -46 2
-58 17 -13 18 -14 18 -15 2 0 -23 -23 -31 -48 -18 -15 8 -22 8 -25 -2 -3 -9
-19 -5 -56 14 -30 16 -51 22 -51 15 0 -6 -5 -4 -10 4 -9 13 -10 13 -10 0 0 -9
-3 -11 -8 -5 -4 7 -24 1 -55 -15z"/>
</g>
</svg>
